<svg xmlns="http://www.w3.org/2000/svg" width="1190.55pt" height="841.89pt" viewBox="0 0 1190.55 841.89"><rect width="100%" height="100%" fill="white" /><text font-family="Arial, Helvetica, sans-serif" font-size="24" font-weight="bold" fill="#14283e" x="45" y="45">03   Assessment activity and result distinctions</text><text font-family="Arial, Helvetica, sans-serif" font-size="13" font-weight="normal" fill="#14283e" x="45" y="75">SemRisk 0.2.0-rc.4 | OntoUML-based view with explicit scope boundaries</text><g transform="translate(45.0 110) scale(0.7744897959183673)"><svg width="1421.0" height="368.0" viewBox="0.00 0.00 1421.00 368.00">
<g id="graph0" class="graph" transform="scale(1 1) rotate(0) translate(21.6 346.4)">
<title>G</title>
<polygon fill="white" stroke="none" points="-21.6,21.6 -21.6,-346.4 1399.67,-346.4 1399.67,21.6 -21.6,21.6" />

<g id="SR-REL-034-view-1-1" class="edge">
<title>SR-CPT-011-&gt;SR-CPT-011</title>
<path fill="none" stroke="#526477" d="M204.92,-301.48C222.04,-300.73 234.95,-296.63 234.95,-289.2 234.95,-281.77 222.04,-277.67 204.92,-276.92" />
<text xml:space="preserve" text-anchor="middle" x="298.84" y="-285.9" font-family="Helvetica,sans-Serif" font-size="11.00">basedOnPriorAssessment</text>
<text xml:space="preserve" text-anchor="middle" x="221.69" y="-267.09" font-family="Helvetica,sans-Serif" font-size="11.00">0..*</text>
<text xml:space="preserve" text-anchor="middle" x="220.7" y="-289.53" font-family="Helvetica,sans-Serif" font-size="11.00">0..*</text>
</g>

<g id="SR-REL-014" class="edge">
<title>SR-CPT-011-&gt;SR-CPT-012</title>
<path fill="none" stroke="#526477" d="M95.01,-253.77C78.72,-241.02 64.14,-229.6 64.14,-229.6 64.14,-229.6 64.14,-216.4 64.14,-216.4 64.14,-216.4 64.5,-204.98 64.9,-192.23" />
<text xml:space="preserve" text-anchor="middle" x="124.06" y="-219.7" font-family="Helvetica,sans-Serif" font-size="11.00">usesAssessmentMethod</text>
<text xml:space="preserve" text-anchor="middle" x="71.99" y="-205.47" font-family="Helvetica,sans-Serif" font-size="11.00">0..*</text>
<text xml:space="preserve" text-anchor="middle" x="77.48" y="-246.4" font-family="Helvetica,sans-Serif" font-size="11.00">0..*</text>
</g>

<g id="SR-REL-015" class="edge">
<title>SR-CPT-011-&gt;SR-CPT-013</title>
<path fill="none" stroke="#526477" d="M176.94,-253.98C197.46,-235.49 218.64,-216.4 218.64,-216.4 218.64,-216.4 469.07,-182.92 591.35,-166.57" />
<text xml:space="preserve" text-anchor="middle" x="286.81" y="-219.7" font-family="Helvetica,sans-Serif" font-size="11.00">producesAssessmentResult</text>
<text xml:space="preserve" text-anchor="middle" x="576.19" y="-172.97" font-family="Helvetica,sans-Serif" font-size="11.00">0..*</text>
<text xml:space="preserve" text-anchor="middle" x="183.96" y="-234.11" font-family="Helvetica,sans-Serif" font-size="11.00">0..*</text>
</g>

<g id="SR-REL-034-view-1-2" class="edge">
<title>SR-CPT-011-&gt;SR-CPT-013</title>
<path fill="none" stroke="#526477" d="M204.79,-271.46C288.18,-250.24 421.2,-216.4 421.2,-216.4 421.2,-216.4 521.53,-191.46 591.3,-174.12" />
<text xml:space="preserve" text-anchor="middle" x="485.09" y="-219.7" font-family="Helvetica,sans-Serif" font-size="11.00">basedOnPriorAssessment</text>
<text xml:space="preserve" text-anchor="middle" x="577.3" y="-182.14" font-family="Helvetica,sans-Serif" font-size="11.00">0..*</text>
<text xml:space="preserve" text-anchor="middle" x="218.72" y="-256.76" font-family="Helvetica,sans-Serif" font-size="11.00">0..*</text>
</g>

<g id="SR-REL-033" class="edge">
<title>SR-CPT-013-&gt;SR-CPT-013</title>
<path fill="none" stroke="#526477" d="M722.92,-169.08C740.04,-168.33 752.95,-164.23 752.95,-156.8 752.95,-149.37 740.04,-145.27 722.92,-144.52" />
<text xml:space="preserve" text-anchor="middle" x="826.93" y="-153.5" font-family="Helvetica,sans-Serif" font-size="11.00">supersedesAssessmentResult</text>
<text xml:space="preserve" text-anchor="middle" x="739.69" y="-134.69" font-family="Helvetica,sans-Serif" font-size="11.00">0..*</text>
<text xml:space="preserve" text-anchor="middle" x="738.7" y="-157.13" font-family="Helvetica,sans-Serif" font-size="11.00">0..*</text>
</g>

<g id="SR-REL-020" class="edge">
<title>SR-CPT-013-&gt;SR-CPT-019</title>
<path fill="none" stroke="#526477" d="M656.98,-121.37C656.98,-102.03 656.98,-78.18 656.98,-59.83" />
<text xml:space="preserve" text-anchor="middle" x="711.71" y="-87.3" font-family="Helvetica,sans-Serif" font-size="11.00">qualifiedByConfidence</text>
<text xml:space="preserve" text-anchor="middle" x="664.58" y="-72.85" font-family="Helvetica,sans-Serif" font-size="11.00">0..*</text>
<text xml:space="preserve" text-anchor="middle" x="649.37" y="-101.75" font-family="Helvetica,sans-Serif" font-size="11.00">0..*</text>
</g>

<g id="GEN-SR-CPT-014-SR-CPT-013" class="edge">
<title>SR-CPT-014-&gt;SR-CPT-013</title>
<path fill="none" stroke="#34465d" d="M516.9,-253.94C542.55,-236.33 573.91,-214.81 600.44,-196.6" />
<polygon fill="none" stroke="#34465d" points="601.41,-198.7 605.48,-193.14 598.83,-194.94 601.41,-198.7" />
</g>

<g id="GEN-SR-CPT-015-SR-CPT-013" class="edge">
<title>SR-CPT-015-&gt;SR-CPT-013</title>
<path fill="none" stroke="#34465d" d="M656.98,-253.94C656.98,-237.45 656.98,-217.52 656.98,-200.09" />
<polygon fill="none" stroke="#34465d" points="659.25,-200.3 656.98,-193.8 654.7,-200.3 659.25,-200.3" />
</g>

<g id="GEN-SR-CPT-016-SR-CPT-013" class="edge">
<title>SR-CPT-016-&gt;SR-CPT-013</title>
<path fill="none" stroke="#34465d" d="M797.06,-253.94C771.4,-236.33 740.05,-214.81 713.51,-196.6" />
<polygon fill="none" stroke="#34465d" points="715.12,-194.94 708.47,-193.14 712.54,-198.7 715.12,-194.94" />
</g>

<g id="GEN-SR-CPT-017-SR-CPT-013" class="edge">
<title>SR-CPT-017-&gt;SR-CPT-013</title>
<path fill="none" stroke="#34465d" d="M962.69,-257.21C891.43,-234.04 795.43,-202.82 730.15,-181.6" />
<polygon fill="none" stroke="#34465d" points="731.07,-179.5 724.18,-179.65 729.66,-183.83 731.07,-179.5" />
</g>

<g id="GEN-SR-CPT-018-SR-CPT-013" class="edge">
<title>SR-CPT-018-&gt;SR-CPT-013</title>
<path fill="none" stroke="#34465d" d="M1184.08,-258.27C1174.92,-255.44 1168.98,-253.6 1168.98,-253.6 1168.98,-253.6 872.46,-198.12 730.73,-171.6" />
<polygon fill="none" stroke="#34465d" points="731.16,-169.37 724.35,-170.41 730.32,-173.84 731.16,-169.37" />
</g>

<g id="node1" class="node">
<title>SR-CPT-011</title>
<polygon fill="#e7f2fc" stroke="none" points="73,-253.6 73,-324.8 204.95,-324.8 204.95,-253.6 73,-253.6" />
<text xml:space="preserve" text-anchor="start" x="119.41" y="-305.8" font-family="Helvetica,sans-Serif" font-size="11.00">&#171;event&#187;</text>
<text xml:space="preserve" text-anchor="start" x="81" y="-278" font-family="Helvetica,sans-Serif" font-weight="bold" font-size="14.00">Risk Assessment</text>
<text xml:space="preserve" text-anchor="start" x="113.69" y="-264" font-family="Helvetica,sans-Serif" font-weight="bold" font-size="14.00">Activity</text>
<polygon fill="none" stroke="#40546c" points="73,-253.6 73,-324.8 204.95,-324.8 204.95,-253.6 73,-253.6" />
</g>

<g id="node2" class="node">
<title>SR-CPT-012</title>
<polygon fill="#e7f2fc" stroke="none" points="0,-121.2 0,-192.4 131.95,-192.4 131.95,-121.2 0,-121.2" />
<text xml:space="preserve" text-anchor="start" x="40.91" y="-173.4" font-family="Helvetica,sans-Serif" font-size="11.00">&#171;subkind&#187;</text>
<text xml:space="preserve" text-anchor="start" x="8" y="-145.6" font-family="Helvetica,sans-Serif" font-weight="bold" font-size="14.00">Risk Assessment</text>
<text xml:space="preserve" text-anchor="start" x="41.09" y="-131.6" font-family="Helvetica,sans-Serif" font-weight="bold" font-size="14.00">Method</text>
<polygon fill="none" stroke="#40546c" points="0,-121.2 0,-192.4 131.95,-192.4 131.95,-121.2 0,-121.2" />
</g>

<g id="node3" class="node">
<title>SR-CPT-013</title>
<polygon fill="#e7f2fc" stroke="none" points="591,-121.2 591,-192.4 722.95,-192.4 722.95,-121.2 591,-121.2" />
<text xml:space="preserve" text-anchor="start" x="631.91" y="-173.4" font-family="Helvetica,sans-Serif" font-size="11.00">&#171;subkind&#187;</text>
<text xml:space="preserve" text-anchor="start" x="599" y="-145.6" font-family="Helvetica,sans-Serif" font-weight="bold" font-size="14.00">Risk Assessment</text>
<text xml:space="preserve" text-anchor="start" x="635.58" y="-131.6" font-family="Helvetica,sans-Serif" font-weight="bold" font-size="14.00">Result</text>
<polygon fill="none" stroke="#40546c" points="591,-121.2 591,-192.4 722.95,-192.4 722.95,-121.2 591,-121.2" />
</g>

<g id="node4" class="node">
<title>SR-CPT-014</title>
<polygon fill="#e7f2fc" stroke="none" points="380.79,-253.6 380.79,-324.8 553.17,-324.8 553.17,-253.6 380.79,-253.6" />
<text xml:space="preserve" text-anchor="start" x="441.91" y="-305.8" font-family="Helvetica,sans-Serif" font-size="11.00">&#171;subkind&#187;</text>
<text xml:space="preserve" text-anchor="start" x="388.79" y="-278" font-family="Helvetica,sans-Serif" font-weight="bold" font-size="14.00">Likelihood Assessment</text>
<text xml:space="preserve" text-anchor="start" x="445.58" y="-264" font-family="Helvetica,sans-Serif" font-weight="bold" font-size="14.00">Result</text>
<polygon fill="none" stroke="#40546c" points="380.79,-253.6 380.79,-324.8 553.17,-324.8 553.17,-253.6 380.79,-253.6" />
</g>

<g id="node5" class="node">
<title>SR-CPT-015</title>
<polygon fill="#e7f2fc" stroke="none" points="583.22,-253.6 583.22,-324.8 730.73,-324.8 730.73,-253.6 583.22,-253.6" />
<text xml:space="preserve" text-anchor="start" x="631.91" y="-305.8" font-family="Helvetica,sans-Serif" font-size="11.00">&#171;subkind&#187;</text>
<text xml:space="preserve" text-anchor="start" x="591.22" y="-278" font-family="Helvetica,sans-Serif" font-weight="bold" font-size="14.00">Impact Assessment</text>
<text xml:space="preserve" text-anchor="start" x="635.58" y="-264" font-family="Helvetica,sans-Serif" font-weight="bold" font-size="14.00">Result</text>
<polygon fill="none" stroke="#40546c" points="583.22,-253.6 583.22,-324.8 730.73,-324.8 730.73,-253.6 583.22,-253.6" />
</g>

<g id="node6" class="node">
<title>SR-CPT-016</title>
<polygon fill="#e7f2fc" stroke="none" points="761.16,-253.6 761.16,-324.8 932.8,-324.8 932.8,-253.6 761.16,-253.6" />
<text xml:space="preserve" text-anchor="start" x="821.91" y="-305.8" font-family="Helvetica,sans-Serif" font-size="11.00">&#171;subkind&#187;</text>
<text xml:space="preserve" text-anchor="start" x="769.16" y="-278" font-family="Helvetica,sans-Serif" font-weight="bold" font-size="14.00">Risk Level Assessment</text>
<text xml:space="preserve" text-anchor="start" x="825.58" y="-264" font-family="Helvetica,sans-Serif" font-weight="bold" font-size="14.00">Result</text>
<polygon fill="none" stroke="#40546c" points="761.16,-253.6 761.16,-324.8 932.8,-324.8 932.8,-253.6 761.16,-253.6" />
</g>

<g id="node7" class="node">
<title>SR-CPT-017</title>
<polygon fill="#e7f2fc" stroke="none" points="962.44,-253.6 962.44,-324.8 1153.51,-324.8 1153.51,-253.6 962.44,-253.6" />
<text xml:space="preserve" text-anchor="start" x="1032.91" y="-305.8" font-family="Helvetica,sans-Serif" font-size="11.00">&#171;subkind&#187;</text>
<text xml:space="preserve" text-anchor="start" x="970.44" y="-278" font-family="Helvetica,sans-Serif" font-weight="bold" font-size="14.00">Inherent Risk Assessment</text>
<text xml:space="preserve" text-anchor="start" x="1036.58" y="-264" font-family="Helvetica,sans-Serif" font-weight="bold" font-size="14.00">Result</text>
<polygon fill="none" stroke="#40546c" points="962.44,-253.6 962.44,-324.8 1153.51,-324.8 1153.51,-253.6 962.44,-253.6" />
</g>

<g id="node8" class="node">
<title>SR-CPT-018</title>
<polygon fill="#e7f2fc" stroke="none" points="1183.88,-253.6 1183.88,-324.8 1378.07,-324.8 1378.07,-253.6 1183.88,-253.6" />
<text xml:space="preserve" text-anchor="start" x="1255.91" y="-305.8" font-family="Helvetica,sans-Serif" font-size="11.00">&#171;subkind&#187;</text>
<text xml:space="preserve" text-anchor="start" x="1191.88" y="-278" font-family="Helvetica,sans-Serif" font-weight="bold" font-size="14.00">Residual Risk Assessment</text>
<text xml:space="preserve" text-anchor="start" x="1259.58" y="-264" font-family="Helvetica,sans-Serif" font-weight="bold" font-size="14.00">Result</text>
<polygon fill="none" stroke="#40546c" points="1183.88,-253.6 1183.88,-324.8 1378.07,-324.8 1378.07,-253.6 1183.88,-253.6" />
</g>

<g id="node9" class="node">
<title>SR-CPT-019</title>
<polygon fill="#e7f2fc" stroke="none" points="567.67,0 567.67,-60 746.28,-60 746.28,0 567.67,0" />
<text xml:space="preserve" text-anchor="start" x="631.91" y="-41" font-family="Helvetica,sans-Serif" font-size="11.00">&#171;subkind&#187;</text>
<text xml:space="preserve" text-anchor="start" x="575.67" y="-13.2" font-family="Helvetica,sans-Serif" font-weight="bold" font-size="14.00">Assessment Confidence</text>
<polygon fill="none" stroke="#40546c" points="567.67,0 567.67,-60 746.28,-60 746.28,0 567.67,0" />
</g>
</g>
</svg></g><text font-family="Arial, Helvetica, sans-serif" font-size="12" font-weight="normal" fill="#14283e" x="45" y="779.89">Dimension and control-baseline subkinds may overlap. The ontology does not impose a universal score formula.</text><text font-family="Arial, Helvetica, sans-serif" font-size="11" font-weight="normal" fill="#14283e" x="45" y="821.89">Blue: implemented | Green: profile helper | Amber: pattern/unclassified | Violet: external/planned</text></svg>