<?xml version="1.0" encoding="UTF-8" standalone="no"?>
<!DOCTYPE svg PUBLIC "-//W3C//DTD SVG 1.1//EN"
 "http://www.w3.org/Graphics/SVG/1.1/DTD/svg11.dtd">
<!-- Generated by graphviz version 14.1.3 (20260303.0454)
 -->
<!-- Title: G Pages: 1 -->
<svg width="1232pt" height="402pt"
 viewBox="0.00 0.00 1232.00 402.00" xmlns="http://www.w3.org/2000/svg" xmlns:xlink="http://www.w3.org/1999/xlink">
<g id="graph0" class="graph" transform="scale(1 1) rotate(0) translate(21.6 380)">
<title>G</title>
<polygon fill="white" stroke="none" points="-21.6,21.6 -21.6,-380 1210.89,-380 1210.89,21.6 -21.6,21.6"/>
<!-- H&#45;QualifiedAssessmentResult&#45;&gt;SR&#45;CPT&#45;013 -->
<g id="GEN&#45;H&#45;QualifiedAssessmentResult&#45;SR&#45;CPT&#45;013" class="edge">
<title>H&#45;QualifiedAssessmentResult&#45;&gt;SR&#45;CPT&#45;013</title>
<path fill="none" stroke="#34465d" d="M498.97,-225.38C506.9,-211.64 515.05,-197.52 522.3,-184.97"/>
<polygon fill="none" stroke="#34465d" points="524.2,-186.24 525.48,-179.47 520.25,-183.96 524.2,-186.24"/>
</g>
<!-- SR&#45;CPT&#45;013&#45;&gt;H&#45;ArtifactVersion -->
<g id="GEN&#45;SR&#45;CPT&#45;013&#45;H&#45;ArtifactVersion" class="edge">
<title>SR&#45;CPT&#45;013&#45;&gt;H&#45;ArtifactVersion</title>
<path fill="none" stroke="#34465d" d="M563.6,-107.21C570.1,-94.37 577.5,-79.77 584.06,-66.8"/>
<polygon fill="none" stroke="#34465d" points="586.02,-67.97 586.93,-61.14 581.96,-65.91 586.02,-67.97"/>
</g>
<!-- SR&#45;CPT&#45;014&#45;&gt;H&#45;ArtifactVersion -->
<g id="GEN&#45;SR&#45;CPT&#45;014&#45;H&#45;ArtifactVersion" class="edge">
<title>SR&#45;CPT&#45;014&#45;&gt;H&#45;ArtifactVersion</title>
<path fill="none" stroke="#34465d" d="M139.35,-256.27C163.68,-240.47 187.19,-225.2 187.19,-225.2 187.19,-225.2 386.19,-107 386.19,-107 386.19,-107 471.67,-76.92 535.08,-54.61"/>
<polygon fill="none" stroke="#34465d" points="535.5,-56.88 540.88,-52.57 533.99,-52.58 535.5,-56.88"/>
</g>
<!-- SR&#45;CPT&#45;014&#45;&gt;SR&#45;CPT&#45;013 -->
<g id="GEN&#45;SR&#45;CPT&#45;014&#45;SR&#45;CPT&#45;013" class="edge">
<title>SR&#45;CPT&#45;014&#45;&gt;SR&#45;CPT&#45;013</title>
<path fill="none" stroke="#34465d" d="M139.35,-256.27C163.68,-240.47 187.19,-225.2 187.19,-225.2 187.19,-225.2 367.56,-184.2 472.6,-160.33"/>
<polygon fill="none" stroke="#34465d" points="473.03,-162.56 478.87,-158.9 472.02,-158.12 473.03,-162.56"/>
</g>
<!-- SR&#45;CPT&#45;015&#45;&gt;H&#45;ArtifactVersion -->
<g id="GEN&#45;SR&#45;CPT&#45;015&#45;H&#45;ArtifactVersion" class="edge">
<title>SR&#45;CPT&#45;015&#45;&gt;H&#45;ArtifactVersion</title>
<path fill="none" stroke="#34465d" d="M311.74,-256.23C366.49,-202.99 465.19,-107 465.19,-107 465.19,-107 506.04,-84.34 543.13,-63.76"/>
<polygon fill="none" stroke="#34465d" points="544.1,-65.83 548.68,-60.68 541.89,-61.85 544.1,-65.83"/>
</g>
<!-- SR&#45;CPT&#45;015&#45;&gt;SR&#45;CPT&#45;013 -->
<g id="GEN&#45;SR&#45;CPT&#45;015&#45;SR&#45;CPT&#45;013" class="edge">
<title>SR&#45;CPT&#45;015&#45;&gt;SR&#45;CPT&#45;013</title>
<path fill="none" stroke="#34465d" d="M323.04,-256.27C344.48,-240.47 365.19,-225.2 365.19,-225.2 365.19,-225.2 423.01,-199.13 473.29,-176.46"/>
<polygon fill="none" stroke="#34465d" points="473.96,-178.66 478.95,-173.91 472.09,-174.51 473.96,-178.66"/>
</g>
<!-- SR&#45;CPT&#45;016&#45;&gt;H&#45;ArtifactVersion -->
<g id="GEN&#45;SR&#45;CPT&#45;016&#45;H&#45;ArtifactVersion" class="edge">
<title>SR&#45;CPT&#45;016&#45;&gt;H&#45;ArtifactVersion</title>
<path fill="none" stroke="#34465d" d="M652.36,-256.23C643.38,-202.99 627.19,-107 627.19,-107 627.19,-107 620.53,-86.76 614.09,-67.17"/>
<polygon fill="none" stroke="#34465d" points="616.31,-66.63 612.11,-61.17 611.98,-68.06 616.31,-66.63"/>
</g>
<!-- SR&#45;CPT&#45;016&#45;&gt;SR&#45;CPT&#45;013 -->
<g id="GEN&#45;SR&#45;CPT&#45;016&#45;SR&#45;CPT&#45;013" class="edge">
<title>SR&#45;CPT&#45;016&#45;&gt;SR&#45;CPT&#45;013</title>
<path fill="none" stroke="#34465d" d="M631.93,-256.29C615.56,-234.77 594.41,-206.98 577.22,-184.38"/>
<polygon fill="none" stroke="#34465d" points="579.14,-183.15 573.39,-179.35 575.52,-185.91 579.14,-183.15"/>
</g>
<!-- SR&#45;CPT&#45;017&#45;&gt;H&#45;ArtifactVersion -->
<g id="GEN&#45;SR&#45;CPT&#45;017&#45;H&#45;ArtifactVersion" class="edge">
<title>SR&#45;CPT&#45;017&#45;&gt;H&#45;ArtifactVersion</title>
<path fill="none" stroke="#34465d" d="M833.73,-256.3C782.51,-206.46 688.38,-114.86 637.33,-65.19"/>
<polygon fill="none" stroke="#34465d" points="638.96,-63.6 632.71,-60.7 635.78,-66.86 638.96,-63.6"/>
</g>
<!-- SR&#45;CPT&#45;017&#45;&gt;SR&#45;CPT&#45;013 -->
<g id="GEN&#45;SR&#45;CPT&#45;017&#45;SR&#45;CPT&#45;013" class="edge">
<title>SR&#45;CPT&#45;017&#45;&gt;SR&#45;CPT&#45;013</title>
<path fill="none" stroke="#34465d" d="M811.29,-256.27C784.79,-240.47 759.19,-225.2 759.19,-225.2 759.19,-225.2 681.15,-195.3 619.55,-171.7"/>
<polygon fill="none" stroke="#34465d" points="620.42,-169.6 613.54,-169.4 618.79,-173.85 620.42,-169.6"/>
</g>
<!-- SR&#45;CPT&#45;018&#45;&gt;H&#45;ArtifactVersion -->
<g id="GEN&#45;SR&#45;CPT&#45;018&#45;H&#45;ArtifactVersion" class="edge">
<title>SR&#45;CPT&#45;018&#45;&gt;H&#45;ArtifactVersion</title>
<path fill="none" stroke="#34465d" d="M1033.24,-256.27C1006.26,-240.47 980.19,-225.2 980.19,-225.2 980.19,-225.2 772.87,-118.69 665.31,-63.43"/>
<polygon fill="none" stroke="#34465d" points="666.54,-61.5 659.72,-60.56 664.46,-65.55 666.54,-61.5"/>
</g>
<!-- SR&#45;CPT&#45;018&#45;&gt;SR&#45;CPT&#45;013 -->
<g id="GEN&#45;SR&#45;CPT&#45;018&#45;SR&#45;CPT&#45;013" class="edge">
<title>SR&#45;CPT&#45;018&#45;&gt;SR&#45;CPT&#45;013</title>
<path fill="none" stroke="#34465d" d="M1033.24,-256.27C1006.26,-240.47 980.19,-225.2 980.19,-225.2 980.19,-225.2 743.53,-180.7 619.73,-157.43"/>
<polygon fill="none" stroke="#34465d" points="620.4,-155.24 613.59,-156.27 619.56,-159.71 620.4,-155.24"/>
</g>
<!-- H&#45;ArtifactVersion -->
<g id="node1" class="node">
<title>H&#45;ArtifactVersion</title>
<polygon fill="#e8f5f0" stroke="none" points="542.07,0 542.07,-60 662.31,-60 662.31,0 542.07,0"/>
<text xml:space="preserve" text-anchor="start" x="577.12" y="-41" font-family="Helvetica,sans-Serif" font-size="11.00">«subkind»</text>
<text xml:space="preserve" text-anchor="start" x="550.07" y="-13.2" font-family="Helvetica,sans-Serif" font-weight="bold" font-size="14.00">Artifact Version</text>
<polygon fill="none" stroke="#40546c" points="542.07,0 542.07,-60 662.31,-60 662.31,0 542.07,0"/>
</g>
<!-- H&#45;QualifiedAssessmentResult -->
<g id="node2" class="node">
<title>H&#45;QualifiedAssessmentResult</title>
<polygon fill="#e8f5f0" stroke="none" points="380.05,-225.2 380.05,-358.4 542.33,-358.4 542.33,-225.2 380.05,-225.2"/>
<text xml:space="preserve" text-anchor="start" x="436.12" y="-339.4" font-family="Helvetica,sans-Serif" font-size="11.00">«subkind»</text>
<text xml:space="preserve" text-anchor="start" x="388.05" y="-311.6" font-family="Helvetica,sans-Serif" font-weight="bold" font-size="14.00">Qualified Assessment</text>
<text xml:space="preserve" text-anchor="start" x="439.8" y="-297.6" font-family="Helvetica,sans-Serif" font-weight="bold" font-size="14.00">Result</text>
<text xml:space="preserve" text-anchor="start" x="388.05" y="-271.2" font-family="Helvetica,sans-Serif" font-size="10.00">numericValue: decimal [1]</text>
<text xml:space="preserve" text-anchor="start" x="388.05" y="-259.2" font-family="Helvetica,sans-Serif" font-size="10.00">methodVersion: string [1]</text>
<text xml:space="preserve" text-anchor="start" x="388.05" y="-247.2" font-family="Helvetica,sans-Serif" font-size="10.00">assessedAt: dateTime [1]</text>
<text xml:space="preserve" text-anchor="start" x="388.05" y="-235.2" font-family="Helvetica,sans-Serif" font-size="10.00">referenceTime: dateTime [1]</text>
<polygon fill="none" stroke="#40546c" points="380.05,-225.2 380.05,-358.4 542.33,-358.4 542.33,-225.2 380.05,-225.2"/>
</g>
<!-- SR&#45;CPT&#45;013 -->
<g id="node3" class="node">
<title>SR&#45;CPT&#45;013</title>
<polygon fill="#e7f2fc" stroke="none" points="480.21,-107 480.21,-178.2 612.17,-178.2 612.17,-107 480.21,-107"/>
<text xml:space="preserve" text-anchor="start" x="521.12" y="-159.2" font-family="Helvetica,sans-Serif" font-size="11.00">«subkind»</text>
<text xml:space="preserve" text-anchor="start" x="488.21" y="-131.4" font-family="Helvetica,sans-Serif" font-weight="bold" font-size="14.00">Risk Assessment</text>
<text xml:space="preserve" text-anchor="start" x="524.8" y="-117.4" font-family="Helvetica,sans-Serif" font-weight="bold" font-size="14.00">Result</text>
<polygon fill="none" stroke="#40546c" points="480.21,-107 480.21,-178.2 612.17,-178.2 612.17,-107 480.21,-107"/>
</g>
<!-- SR&#45;CPT&#45;014 -->
<g id="node4" class="node">
<title>SR&#45;CPT&#45;014</title>
<polygon fill="#e7f2fc" stroke="none" points="0,-256.2 0,-327.4 172.38,-327.4 172.38,-256.2 0,-256.2"/>
<text xml:space="preserve" text-anchor="start" x="61.12" y="-308.4" font-family="Helvetica,sans-Serif" font-size="11.00">«subkind»</text>
<text xml:space="preserve" text-anchor="start" x="8" y="-280.6" font-family="Helvetica,sans-Serif" font-weight="bold" font-size="14.00">Likelihood Assessment</text>
<text xml:space="preserve" text-anchor="start" x="64.8" y="-266.6" font-family="Helvetica,sans-Serif" font-weight="bold" font-size="14.00">Result</text>
<polygon fill="none" stroke="#40546c" points="0,-256.2 0,-327.4 172.38,-327.4 172.38,-256.2 0,-256.2"/>
</g>
<!-- SR&#45;CPT&#45;015 -->
<g id="node5" class="node">
<title>SR&#45;CPT&#45;015</title>
<polygon fill="#e7f2fc" stroke="none" points="202.44,-256.2 202.44,-327.4 349.94,-327.4 349.94,-256.2 202.44,-256.2"/>
<text xml:space="preserve" text-anchor="start" x="251.12" y="-308.4" font-family="Helvetica,sans-Serif" font-size="11.00">«subkind»</text>
<text xml:space="preserve" text-anchor="start" x="210.44" y="-280.6" font-family="Helvetica,sans-Serif" font-weight="bold" font-size="14.00">Impact Assessment</text>
<text xml:space="preserve" text-anchor="start" x="254.8" y="-266.6" font-family="Helvetica,sans-Serif" font-weight="bold" font-size="14.00">Result</text>
<polygon fill="none" stroke="#40546c" points="202.44,-256.2 202.44,-327.4 349.94,-327.4 349.94,-256.2 202.44,-256.2"/>
</g>
<!-- SR&#45;CPT&#45;016 -->
<g id="node6" class="node">
<title>SR&#45;CPT&#45;016</title>
<polygon fill="#e7f2fc" stroke="none" points="572.37,-256.2 572.37,-327.4 744.01,-327.4 744.01,-256.2 572.37,-256.2"/>
<text xml:space="preserve" text-anchor="start" x="633.12" y="-308.4" font-family="Helvetica,sans-Serif" font-size="11.00">«subkind»</text>
<text xml:space="preserve" text-anchor="start" x="580.37" y="-280.6" font-family="Helvetica,sans-Serif" font-weight="bold" font-size="14.00">Risk Level Assessment</text>
<text xml:space="preserve" text-anchor="start" x="636.8" y="-266.6" font-family="Helvetica,sans-Serif" font-weight="bold" font-size="14.00">Result</text>
<polygon fill="none" stroke="#40546c" points="572.37,-256.2 572.37,-327.4 744.01,-327.4 744.01,-256.2 572.37,-256.2"/>
</g>
<!-- SR&#45;CPT&#45;017 -->
<g id="node7" class="node">
<title>SR&#45;CPT&#45;017</title>
<polygon fill="#e7f2fc" stroke="none" points="773.66,-256.2 773.66,-327.4 964.72,-327.4 964.72,-256.2 773.66,-256.2"/>
<text xml:space="preserve" text-anchor="start" x="844.12" y="-308.4" font-family="Helvetica,sans-Serif" font-size="11.00">«subkind»</text>
<text xml:space="preserve" text-anchor="start" x="781.66" y="-280.6" font-family="Helvetica,sans-Serif" font-weight="bold" font-size="14.00">Inherent Risk Assessment</text>
<text xml:space="preserve" text-anchor="start" x="847.8" y="-266.6" font-family="Helvetica,sans-Serif" font-weight="bold" font-size="14.00">Result</text>
<polygon fill="none" stroke="#40546c" points="773.66,-256.2 773.66,-327.4 964.72,-327.4 964.72,-256.2 773.66,-256.2"/>
</g>
<!-- SR&#45;CPT&#45;018 -->
<g id="node8" class="node">
<title>SR&#45;CPT&#45;018</title>
<polygon fill="#e7f2fc" stroke="none" points="995.09,-256.2 995.09,-327.4 1189.29,-327.4 1189.29,-256.2 995.09,-256.2"/>
<text xml:space="preserve" text-anchor="start" x="1067.12" y="-308.4" font-family="Helvetica,sans-Serif" font-size="11.00">«subkind»</text>
<text xml:space="preserve" text-anchor="start" x="1003.09" y="-280.6" font-family="Helvetica,sans-Serif" font-weight="bold" font-size="14.00">Residual Risk Assessment</text>
<text xml:space="preserve" text-anchor="start" x="1070.8" y="-266.6" font-family="Helvetica,sans-Serif" font-weight="bold" font-size="14.00">Result</text>
<polygon fill="none" stroke="#40546c" points="995.09,-256.2 995.09,-327.4 1189.29,-327.4 1189.29,-256.2 995.09,-256.2"/>
</g>
</g>
</svg>
